<?xml version="1.0" encoding="UTF-8"?> <svg xmlns="http://www.w3.org/2000/svg" viewBox="0 0 413.53 906.49"><defs><style> .cls-1 { fill: #fff; } .cls-2 { isolation: isolate; } .cls-3 { mix-blend-mode: multiply; } .cls-3, .cls-4 { fill: #45c0b9; } .cls-5 { fill: #62be6b; } .cls-6 { fill: #73cddc; } .cls-7 { fill: #f06d9e; } .cls-8 { fill: #222558; } .cls-9 { fill: #222658; } .cls-10 { fill: #8d64af; } </style></defs><g class="cls-2"><g id="Layer_2" data-name="Layer 2"><g id="SECONDARY_LOGO" data-name="SECONDARY LOGO"><g id="SECONDARY_LOGO_-_COLOR" data-name="SECONDARY LOGO - COLOR"><path class="cls-4" d="M295.3,180.33c-19.03-28.9-44.56-47.61-76.03-55.83l-13.15-2.77c-1.23-.19-2.47-.39-3.72-.56-.76-.1-1.57-.17-2.47-.22-5.98-.32-11.76,1.09-16.76,4.04-66.97,39.67-55.42,104.86-47.35,131.05,.18,.58,.32,1.01,.39,1.27,1.25,4.58,3.72,8.13,6.29,9.07,3.34,1.21,6.66,2.33,9.94,3.4l11.29,3.37c.09,.02,.17,.05,.27,.07,76.18,21,133.09,1.51,145.2-3.26-.44-3.18-.6-6.55-.48-10.06,.02-.45,.04-.9,.06-1.35,.17-3.77,.68-7.7,1.55-11.69,1.41-6.46,3.63-12.54,6.5-17.85,.04-.08,.08-.15,.12-.23-1.47-5.89-7.34-26.74-21.65-48.45Z"></path><path class="cls-10" d="M397.09,799.89c6.96,11.16,8.28,25.07,3.55,37.23-23.21,59.56-45.15,61.54-65.63,58.47-2.28-.34-4.28-1.66-5.49-3.63-1.21-1.98-1.49-4.37-.77-6.58l15.81-47.73c.48-1.47,.27-3.1-.6-4.39l-26.06-38.99c.57-.02,1.12-.04,1.67-.06,.4,.04,.82,.07,1.23,.08,.43,.01,.86,.01,1.28,.01,19.65,0,35.75-9.55,45.41-27.01,2.78-5.03,4.3-10.67,4.49-16.26l24.88,48.5c.06,.12,.13,.24,.21,.36Z"></path><path class="cls-6" d="M365,317.7c15.41,1.3,33.28,12.4,30.96,57.93-.03,.68-.05,1.2-.06,1.56l-2.35,27.97c-2.2-4.02-4.69-8.04-7.47-12.08,1.67-15.52,4.14-40.69-8.95-56.6-6.43-7.82-15.77-12.31-27.78-13.36-.04,0-.09,0-.14-.01l-29.65-1.76v-.03c5.1-1.39,9.84-3.33,14.25-5.66l31.19,2.03Z"></path><path class="cls-1" d="M358.52,375.75c17.91,18.23,38.88,46.32,37.14,76.58-.57,9.72-3.42,19.16-8.52,28.32-.75,1.31-.75,1.71-1.96,3.31-13.15,21.16-38.51,40.72-75.89,58.42-4.81,2.28-10.67,.47-14.56-1.97-7.88-4.95-17.15-14.65-16.61-32.76,.09-3.06,1.71-5.81,4.31-7.38l1.64-1c15.68-9.4,39.37-23.61,42.57-45.55,1.76-12.11-3.2-24.62-14.73-37.21-1.89-2.05-5.07-2.19-7.13-.31-2.05,1.89-2.19,5.07-.31,7.13,9.39,10.24,13.49,19.98,12.19,28.94-2.5,17.2-23.72,29.93-37.76,38.36l-1.66,1c-3.32,2-5.87,4.9-7.44,8.29l-25.66,14.14c-3.85-.62-7.46-1.23-10.67-1.77-12.02-2.03-20.69-3.49-27.16-2.89-14.08,1.33-16.62,8.2-16.88,12.18-.47,7.36,6.4,14.5,12.86,15.97l.46,.1c1.72,.38,4.06,.92,5.31,1.52,.14,.07,.26,.14,.36,.19-1.35,2.1-6.43,5.9-11.53,8.61l-18.75,3.03c-4.15,.67-10.03,2.1-13.25,6.76-1.98,2.86-2.57,6.34-1.77,10.33,1,4.92,4.73,8.43,10.51,9.89,2.53,.63,4.9,.74,6.17,.74,.54,0,.89-.02,.97-.03l5.53-.24,.37-.03c-.6,2.05-.8,4.67,.07,7.84,1.34,4.92,5.32,8.13,11.19,9.02,1.26,.19,2.47,.26,3.52,.26,2,0,3.46-.23,3.69-.27,.15-.02,.31-.06,.47-.1l.68-.18,.12-.03,7.05-2.08c.11,.89,.29,1.83,.57,2.84,1.75,6.4,8,9,14.13,9,1.2,0,2.4-.1,3.56-.29,.2-.04,.39-.08,.59-.14l15.2-4.44c3.5-1.02,6.58-3.24,8.65-6.26l12.14-17.64c3.71-5.4,8.71-9.92,14.44-13.08l17.59-9.69c1.34,.21,2.68,.33,4,.33,3.27,0,6.42-.67,9.28-2.03,.46-.21,.92-.44,1.38-.67l-5.07,62.13c-5.09,39.97,23.1,81.74,25.67,85.44l25.28,44.39c2,6.23,1.2,13.51-2.19,19.62-5.64,10.18-16.77,22.28-37.65,21.79-2.92-.06-6.81-2.5-10.22-6.39l-.81-1.12c-.4-.58-.94-1.06-1.54-1.41-.22-.13-22.29-13.23-44.81-40.35-20.69-24.92-46.06-67.19-49.34-127.05-.15-2.77-2.52-4.91-5.32-4.76-2.78,.16-4.91,2.53-4.76,5.32,3.35,60.95,28.58,104.51,49.98,130.91-1.95,10.37-8.26,23.87-27.18,30.11-2.77,.91-7.26-.1-11.76-2.62l-1.13-.8s-.08-.05-.12-.07c-60.45-39.74-93.63-97.63-95.95-167.42-1.87-55.98,.81-106.78,3.68-141.82,.16-1.37,.05-1.87,.3-3.61,2.36-27.76,4.76-44.73,4.81-45.11,.39-2.75-1.51-5.32-4.28-5.71-2.75-.39-5.31,1.52-5.71,4.28-.05,.38-2.45,17.39-4.83,45.23-14.2,8.31-30.03,8.6-43.83,.66-14.38-8.28-47.2-38.4-41.45-139.03,.28-5.02,4.92-9.11,9.17-11.26,8.29-4.2,21.39-7.14,36.63,2.65,2.56,1.64,4.1,4.45,4.1,7.49,0,1.8-.02,3.84-.05,6.08-.24,17.28-.63,46.21,10.58,61.18,1.07,1.42,2.74,2.11,4.41,2,.2,.02,.4,.05,.62,.05,1.32,0,2.63-.51,3.62-1.53,1.31-1.35,2.12-2.74,2.48-4.28,8.02-33.72,41.12-40.23,42.54-40.49,.17-.03,.33-.09,.49-.14,30.86,15.1,65.52,19.31,94.53,19.31,8.74,0,16.98-.37,24.44-.96,29.65-2.31,52.33-7.93,59.39-9.84,5.47,3.62,22.39,15.36,38.8,32.06Zm-70.25,61.29c3.27-3.32,5.01-7.78,4.93-12.57l-.41-25.04c-.16-9.64-7.82-18.12-17.44-19.31l-75.17-9.28c-.76-.1-1.51-.14-2.27-.14-2.37,0-4.67,.45-6.77,1.32-2.1,.88-4.02,2.16-5.65,3.81-3.26,3.32-5.01,7.78-4.93,12.57l.41,25.04c.16,9.65,7.82,18.12,17.44,19.31l75.17,9.28c.76,.1,1.51,.14,2.27,.14,4.75,0,9.16-1.82,12.42-5.14Z"></path><path class="cls-6" d="M383.37,503.14l-3.43,36.64-.04,.41c-.74,7.58-2.2,22.31-16.35,34.25,4.6-8.16,7.5-17.5,8.41-27.32,.01-.05,.01-.09,.01-.14l2.33-34.56c3.27-3.06,6.3-6.15,9.07-9.29Z"></path><path class="cls-6" d="M369.35,342.89c8,9.75,8.56,25.29,7.7,38.3-3.52-4.24-7.35-8.46-11.48-12.67-17.82-18.1-35.72-30.28-40.88-33.65l-1.2-3.17,25.07,1.48c9.29,.82,16.09,4,20.79,9.71Z"></path><path class="cls-10" d="M288.01,104.76c61.18,13.26,99.71,76.03,85.93,139.96-.45,1.62-6.23,21.39-19.62,39.35l-2.31-1.44c4.72-6.31,8.46-14.6,10.53-24.12,2.35-10.87,2.1-21.7-.72-30.5-3.13-9.77-9.04-16.05-16.65-17.7-2.05-.44-4.13-.52-6.19-.26-2.17-5.89-11.27-29.1-28.13-52.68-20.18-28.23-43.93-46.08-69.58-52.56,15.27-3.36,31.12-3.43,46.73-.05Z"></path><path class="cls-6" d="M363.57,521.57l-1.65,24.67c-.95,10-4.25,19.37-9.53,27.1-5.35,7.82-12,13.22-19.75,16.02-.12,.05-.23,.09-.35,.14-.87,.39-3.38,.75-10.32,.2l3.6-44.14c14.67-7.64,27.35-15.64,38.02-23.99Z"></path><path class="cls-10" d="M352.01,282.63l2.31,1.44c-9.78,13.1-23.62,25.24-42.44,28.66-.37,.07-.74,.18-1.08,.32-50.35,12.94-91.23,11.11-116.7,7.26-22.46-3.39-37.2-8.89-42.1-10.91-.23-.12-.45-.24-.7-.32-.02-.01-.33-.12-.86-.33-.14-.07-.22-.11-.25-.12-.04-.02-.09-.02-.13-.04-3.31-1.41-12.33-5.89-15.91-13.94,37.9,14.02,72.14,18.35,99.98,18.35,13.55,0,25.59-1.03,35.77-2.46,31.6-4.43,51.76-13.32,56.35-15.5,.18,.05,.35,.1,.53,.14,1.28,.28,2.56,.41,3.84,.41,7.69,0,15.33-4.85,21.39-12.97Z"></path><path class="cls-6" d="M352.21,231.07c2.29,7.14,2.45,16.13,.46,25.29-3.34,15.42-13.92,31.11-23.76,28.97s-12.97-20.79-9.64-36.2c1.99-9.17,5.85-17.28,10.89-22.83,3.7-4.09,7.7-6.31,11.21-6.31,.58,0,1.13,.06,1.66,.17,3.88,.85,7.22,4.82,9.17,10.91Z"></path><path class="cls-6" d="M329.54,213.62c-2.08,1.34-4.11,3.04-6.05,5.07-3.13-9.9-9.29-25.88-20.26-42.62-15.24-23.26-42.82-52-89.07-61.46,1.72-.89,3.45-1.73,5.2-2.51,.13,.02,.27,.05,.41,.05,30.84,.21,58.69,17.34,82.74,50.89,16.16,22.55,25.1,45.38,27.03,50.58Z"></path><path class="cls-10" d="M304.07,791.71l20.01,29.92c-5.01,32.55-20.1,39.27-35.13,43.34-2.22,.61-4.59,.2-6.49-1.12-1.91-1.32-3.13-3.4-3.34-5.71l-4.72-50.05c-.16-1.65-1.11-3.12-2.55-3.92l-43.8-24.62c.72-.13,1.43-.29,2.15-.53,15.87-5.23,26.97-15.89,31.96-30.4,18.95,20.98,36.05,32.18,40.26,34.79l.34,.47c.08,.12,.18,.24,.27,.35,.39,.46,.85,.96,1.34,1.47-.16,.2-.31,.41-.45,.64-.98,1.67-.92,3.75,.15,5.37Z"></path><path class="cls-10" d="M309.68,323.74l4.18,11.03c-21.17,5.25-101.75,22.07-165.15-7.26l3.45-7.19c7.35,2.71,20.96,7,39.95,9.91,11.07,1.7,24.91,3.03,41.1,3.03,21.66,0,47.52-2.4,76.47-9.5Z"></path><path class="cls-6" d="M310.89,279.62c1.31,3.41,3.02,6.4,5.09,8.84-8.64,3.41-25.31,9.03-47.94,12.16-9.22,1.28-20.02,2.2-32.12,2.28l-.89-10.34c11.31-.05,21.4-.84,29.97-1.94,22.86-2.92,38.85-8.28,45.91-11Z"></path><path class="cls-9" d="M293.2,424.47c.08,4.79-1.66,9.25-4.93,12.57-3.26,3.32-7.67,5.14-12.42,5.14-.76,0-1.51-.04-2.27-.14l-75.17-9.28c-9.63-1.19-17.28-9.67-17.44-19.31l-.41-25.04c-.08-4.79,1.67-9.25,4.93-12.57,1.63-1.65,3.55-2.94,5.65-3.81,2.1-.87,4.4-1.32,6.77-1.32,.76,0,1.51,.04,2.27,.14l75.17,9.28c9.63,1.19,17.28,9.68,17.44,19.31l.41,25.04Z"></path><path class="cls-10" d="M288.33,548.28l-10.44,5.75c-7.1,3.91-13.29,9.51-17.88,16.19l-12.15,17.65c-.76,1.1-1.88,1.91-3.16,2.28l-14.86,4.35c-1.48,.17-5.6,.21-6.05-1.44-.49-1.83-.29-2.4-.29-2.41,.15-.26,.8-.75,2.83-1.58,.66-.22,1.35-.49,2.06-.79,.03-.01,.06-.02,.09-.04,.04-.01,.08-.04,.13-.06,3.24-1.4,6.72-3.47,8.86-5.7l12.11-12.64c1.93-2.02,1.86-5.21-.15-7.13-2.02-1.93-5.21-1.86-7.13,.15l-12.11,12.64c-1,1.05-3.3,2.42-5.53,3.4-.62,.22-1.27,.47-1.95,.75-.13,.04-.27,.09-.39,.13l-18.67,5.49-.31,.08c-1.4,.16-6.27,.37-6.84-1.74-.5-1.86-.05-2.61,.12-2.91,.8-1.33,3.13-2.53,6.38-3.3l4.51-.28c3.02-.19,5.93-1.17,8.44-2.83l16.03-10.59c2.33-1.53,2.97-4.66,1.43-6.98-1.53-2.33-4.66-2.97-6.99-1.43l-16.03,10.58c-1.05,.7-2.26,1.1-3.52,1.18l-21.09,1.32-5.49,.25c-1.72,.09-6.82-.36-7.26-2.53-.24-1.2-.18-2.07,.17-2.58,.34-.5,1.68-1.76,6.57-2.54l19.53-3.16c.51-.08,1.01-.24,1.47-.47,5.45-2.76,18.11-10.08,18.05-18.47-.02-2.12-.87-6.07-6.34-8.75-2.31-1.12-5.19-1.78-7.51-2.29l-.45-.11c-2.18-.49-5.14-3.72-5.02-5.48,.04-.67,2-2.23,7.76-2.77,5.16-.48,13.28,.89,24.53,2.78,3.72,.63,7.94,1.33,12.49,2.05,1.1,.17,2.24-.02,3.22-.57l20.62-11.35c1.01,18.97,11.13,29.88,20.22,35.91Z"></path><path class="cls-6" d="M171.94,285.22l-4.12,9.33c-11.16-2.8-22.78-6.46-34.76-11.11,.59-3.03,1.82-6.22,3.67-9.57,1.07,.74,2.24,1.38,3.55,1.86,10.91,3.97,21.48,7.07,31.65,9.49Z"></path><path class="cls-10" d="M26.03,232.6c-.04,.24-.07,.49-.07,.74-.02,5.83-1.54,7.74-6.77,8.51-2.21,.32-4.43-1.96-5.97-4.1l-2.39-6.74s-8.73-24.72,3.95-29.05c3.79-1.3,7.78-2.61,10.83-3.08-.17,.52-.33,1.03-.49,1.54-2.48,8.3-3.24,16.62-3.27,16.96,0,.12-.02,.25-.02,.37,0,1.22,.17,9.49,4.19,14.84Z"></path><path class="cls-10" d="M53.71,191.73c-.31,.45-.54,.97-.65,1.54l-3.75,18.93-3.1-.3c-1.75-.16-3.39,.8-4.11,2.4-.69,1.54-1.34,3.24-1.96,4.9-1.54,4.09-3.88,10.28-5.99,9.69-2.84-.79-4.09-7.44-4.14-10.98,.12-1.23,.89-8.29,2.94-15.16,1.16-3.86,4.23-12.52,8.73-12.93,1.02-.09,1.11-.14,2.74-.12,4.09,.43,7.1,1.19,9.3,2.01Z"></path><path class="cls-10" d="M86.41,197.31c.41,2.11,.26,4.28-.44,6.31l-2.61,12.21-11.95-8.3c-1.33-.93-3.09-.98-4.47-.13-.28,.17-6.4,4.01-8.14,11.27l-2.37-.63c.09-.22,.16-.45,.21-.7l4.44-22.48s0-.05,0-.07l.96-2-1.44-21.52c-.67-7.21,2.39-13.23,9.78-13.61,.13,0,.26-.02,.38-.02,7.07,0,9.11,10.48,9.11,10.48l1.12,5.33,5.42,23.87Z"></path><path class="cls-10" d="M52.36,220.6c.09,0,.18,.02,.27,.02,1.67,0,3.19-1.04,3.8-2.59l2.37,.63c-.12,.5-.21,1.02-.29,1.54-.86,6.17,1.68,12.56,7.56,18.99,.81,.88,1.92,1.33,3.02,1.33,.98,0,1.97-.35,2.76-1.07,1.67-1.52,1.78-4.1,.26-5.77-4.13-4.52-5.99-8.64-5.51-12.27,.31-2.34,1.59-4.18,2.72-5.39l13.1,9.11,6.2,4.4c3.42,2.91,5.88,11.39,4.14,15.53l-12.22,20.36,.61,25.29c0,.12,.02,.24,.04,.36l.13,.72c.54,2.9-1.74,5.43-4.42,5.43-.53,0-1.06-.09-1.6-.31-.16-.06-.29-.12-.4-.19-8.02-5.15-15.4-6.97-21.95-6.97-7.67,0-14.17,2.48-19.19,5.02-3.16,1.6-4.85,2.37-7.28,3.86-.45,.28-.94,.4-1.4,.4-1.57,0-2.97-1.4-2.68-3.16l.38-2.31,4.03-28.16s-10.86-7.82-14.15-17.09c1.82,1.06,3.86,1.74,6.08,1.74,.54,0,1.08-.04,1.64-.12,7.96-1.18,12.39-5.39,13.47-12.81,.31,.03,.62,.05,.92,.05,7.32,0,10.7-8.94,13.03-15.07,.22-.61,.45-1.21,.67-1.77l3.04,.28c.3,.03,.58,.02,.86,0Z"></path><path class="cls-8" d="M56.43,218.04c-.61,1.55-2.13,2.59-3.8,2.59-.09,0-.18-.02-.27-.02-.28,.03-.56,.04-.86,0l-3.04-.28c-.21,.57-.45,1.16-.67,1.77-2.33,6.13-5.7,15.07-13.03,15.07-.3,0-.6-.02-.92-.05-1.08,7.42-5.51,11.63-13.47,12.81-.56,.08-1.11,.12-1.64,.12-2.22,0-4.25-.68-6.08-1.74,3.29,9.27,14.15,17.09,14.15,17.09l-4.03,28.16-.38,2.31c-.29,1.76,1.11,3.16,2.68,3.16,.46,0,.95-.12,1.4-.4,2.44-1.49,4.12-2.26,7.28-3.86,5.01-2.53,11.52-5.02,19.19-5.02,6.55,0,13.93,1.82,21.95,6.97,.11,.07,.24,.13,.4,.19,.54,.21,1.07,.31,1.6,.31,2.68,0,4.97-2.53,4.42-5.43l-.13-.72c-.02-.12-.03-.24-.04-.36l-.61-25.29,12.22-20.36c1.73-4.14-.73-12.62-4.14-15.53l-6.2-4.4-13.1-9.11c-1.13,1.21-2.41,3.05-2.72,5.39-.48,3.62,1.38,7.74,5.51,12.27,1.53,1.67,1.41,4.25-.26,5.77-.78,.72-1.77,1.07-2.76,1.07-1.11,0-2.21-.45-3.02-1.33-5.88-6.43-8.42-12.82-7.56-18.99,.07-.53,.17-1.05,.29-1.54,1.74-7.26,7.86-11.1,8.14-11.27,1.39-.85,3.15-.8,4.47,.13l11.95,8.3,2.61-12.21c.69-2.02,.85-4.2,.44-6.31l-5.42-23.87-1.12-5.33s-2.03-10.48-9.11-10.48c-.12,0-.25,0-.38,.02-7.39,.39-10.45,6.41-9.78,13.61l1.44,21.52-.96,2s0,.05,0,.07l-4.44,22.48c-.05,.25-.12,.48-.21,.7ZM405.76,794.73c8.54,13.81,10.15,31.01,4.28,46.05-20.16,51.74-40.95,65.71-65.03,65.71-3.75,0-7.59-.35-11.5-.92-5.23-.79-9.82-3.83-12.59-8.34-2.77-4.51-3.41-9.99-1.74-15.02l15.03-45.39-2.25-3.36c-7.22,28.32-23.54,36.7-40.38,41.28-1.54,.41-3.13,.62-4.69,.62-3.61,0-7.16-1.1-10.2-3.19-4.35-3.01-7.13-7.78-7.64-13.05l-4.47-47.44-46.63-26.2c-2.08-1.16-3.05-3.62-2.34-5.9l.41-1.33c-2.38-.85-4.44-1.89-5.98-2.77-.13-.07-.25-.15-.38-.24l-1.27-.88c-63.27-41.62-98-102.3-100.44-175.47-1.74-52.43,.46-100.35,3.11-135.25-7.08,3.15-14.41,4.74-21.7,4.74-8.97,0-17.87-2.38-26.2-7.18-33.81-19.47-50.76-73.54-46.49-148.35,.16-2.63,.89-5.21,2.1-7.64-.73-.53-1.43-1.14-2.03-1.84-2.06-2.44-2.95-5.65-2.44-8.81l.37-2.23,3.37-23.5c-2.06-1.82-4.63-4.32-7-7.25-3.85-4.77-9.3-13.6-6.95-23.14-.05-.12-.12-.23-.17-.35-.52-1.16-.45-2.41,.07-3.47-.11-.35-.21-.68-.27-.93-1.51-4.12-6.61-19.79-1.57-30.5,2.05-4.35,5.49-7.45,9.96-8.98,5.74-1.96,10.85-3.58,15.08-3.71,2.44-3.8,5.23-6.08,7.93-7.41s5.32-1.7,7.4-1.7c.53,0,1.06,.02,1.59,.07,3.53,.31,6.52,.86,9.06,1.54l-.74-11.1c-.58-6.46,1.06-12.27,4.59-16.36,3.19-3.69,7.65-5.79,12.91-6.06,.27-.02,.54-.02,.81-.02,10.86,0,15.87,10.67,17.12,17.03l1.1,5.21,5.41,23.81c.02,.09,.04,.17,.06,.26,.64,3.32,.44,6.76-.57,9.98l-3.24,15.18,2.71,1.93c.2,.13,.39,.28,.56,.44,5.62,4.77,9.72,16.96,6.39,24.91-.15,.36-.33,.71-.53,1.05l-11,18.33,.54,22.44,.05,.26c.57,3.06,.56,9.16-4.87,13.02,1.47,2.72,2.27,5.79,2.27,8.99,0,1.84-.02,3.93-.06,6.23-.17,12.98-.45,33.06,4.36,46.7,11.82-31.12,42.56-38.71,47.39-39.72l4.4-9.15c-5.86-3.03-15.07-9.23-18.75-19.62-3.29-9.33-1.42-19.66,5.56-30.74,.09-.13,.19-.25,.28-.36-1.1-2.23-1.77-4.3-2.15-5.66-.05-.2-.15-.52-.28-.96-7.42-24.07-7.23-44.22-5.76-56.88,4.17-35.89,23.34-64.2,56.99-84.13,5.71-3.38,12.2-5.23,18.92-5.42,27.77-18.31,60.55-24.6,92.47-17.67,66.68,14.45,108.68,82.68,93.64,152.1-.02,.07-.04,.15-.07,.23-.53,1.99-10.27,37.23-36.33,59.22l18.37,1.19c16.35,1.37,43.16,12.09,40.29,68.5-.03,.62-.06,1.06-.06,1.3,0,.14,0,.28,0,.42l-3.67,43.78c-.07,.75-.3,1.44-.64,2.04,3.23,9.91,4.61,19.71,4.06,29.2-.69,11.9-4.28,23.37-10.74,34.37l-5.04,53.92c-1.15,11.71-4.18,42.83-49.16,55.84-.22,.06-.43,.1-.64,.12-1.28,.61-2.58,1.16-3.91,1.66-1.82,.78-4.08,1.28-8.3,1.28-1.85,0-4.09-.1-6.81-.31l-1.15,14.12c0,.07,0,.16-.02,.23-1.92,14.83,1.3,32.58,9.26,51.36,6.7,15.76,14.45,26.85,14.78,27.32,.1,.12,.18,.27,.26,.4l24.73,43.43c.46-.12,.95-.21,1.44-.25,3.19-.2,6.17,1.49,7.63,4.33l27.71,54.02Zm-5.12,42.38c4.73-12.15,3.41-26.07-3.55-37.22-.08-.12-.15-.25-.21-.36l-24.87-48.5c-.2,5.59-1.71,11.23-4.49,16.26-9.67,17.45-25.76,27.01-45.41,27.01-.43,0-.85,0-1.28-.02-.42,0-.83-.03-1.24-.07-.55,.02-1.11,.04-1.67,.06l26.05,38.98c.87,1.3,1.08,2.92,.59,4.39l-15.81,47.73c-.73,2.21-.44,4.6,.77,6.58,1.21,1.96,3.21,3.29,5.49,3.63,20.48,3.08,42.42,1.09,65.63-58.47Zm-4.68-461.48c2.32-45.54-15.55-56.63-30.97-57.94l-31.18-2.02c-4.41,2.33-9.16,4.27-14.26,5.65v.03s29.66,1.76,29.66,1.76c.05,0,.1,0,.14,0,12,1.05,21.35,5.54,27.78,13.36,13.08,15.91,10.62,41.09,8.95,56.6,2.77,4.04,5.27,8.07,7.46,12.08l2.35-27.97c0-.36,.02-.88,.06-1.56Zm-.31,76.7c1.75-30.26-19.23-58.35-37.13-76.58-16.42-16.71-33.34-28.45-38.81-32.06-7.05,1.91-29.73,7.52-59.38,9.83-7.45,.59-15.7,.96-24.44,.96-29.01,0-63.67-4.2-94.53-19.31-.16,.05-.32,.12-.5,.14-1.41,.26-34.52,6.77-42.53,40.49-.36,1.54-1.17,2.92-2.48,4.28-.99,1.02-2.3,1.54-3.62,1.54-.21,0-.41-.03-.61-.05-1.67,.11-3.34-.58-4.41-2-11.21-14.98-10.83-43.9-10.58-61.19,.02-2.24,.05-4.28,.05-6.08,0-3.03-1.54-5.84-4.09-7.48-.32-.21-.64-.4-.97-.59-.4-.19-.78-.39-1.13-.62-.4-.26-.8-.48-1.2-.73l-3.81-2.03c-4.19-1.94-8.32-2.91-12.52-2.91-2.06,0-4.13,.24-6.22,.71l-7.09,2.39c-.71,.32-1.44,.67-2.18,1.04-.69,.35-1.32,.67-1.91,.96-1.73,.87-2.86,1.43-4.18,2.21-2.48,2.17-4.42,4.99-4.6,8.17-5.75,100.63,27.07,130.75,41.45,139.03,13.79,7.94,29.63,7.66,43.83-.65,2.38-27.84,4.78-44.84,4.83-45.23,.4-2.76,2.96-4.67,5.71-4.28,2.77,.4,4.67,2.96,4.28,5.71-.05,.38-2.45,17.35-4.81,45.11-.26,1.74-.14,2.24-.31,3.61-2.87,35.04-5.55,85.85-3.68,141.82,2.32,69.79,35.51,127.69,95.95,167.43,.04,.02,.08,.05,.12,.07l1.13,.8c4.5,2.52,8.98,3.53,11.76,2.62,18.91-6.23,25.23-19.73,27.18-30.1-21.4-26.41-46.63-69.96-49.99-130.91-.15-2.78,1.98-5.15,4.76-5.32,2.8-.15,5.17,1.99,5.32,4.76,3.29,59.86,28.65,102.13,49.34,127.05,22.52,27.13,44.58,40.22,44.8,40.35,.61,.35,1.14,.83,1.54,1.41l.81,1.12c3.41,3.88,7.31,6.32,10.22,6.38,20.89,.49,32.01-11.61,37.65-21.79,3.39-6.11,4.19-13.4,2.19-19.62l-25.28-44.39c-2.57-3.7-30.75-45.46-25.67-85.43l5.07-62.13c-.46,.21-.92,.45-1.38,.66-2.86,1.36-6.02,2.03-9.28,2.03-1.31,0-2.66-.12-4-.33l-17.59,9.68c-5.73,3.15-10.72,7.68-14.44,13.08l-12.14,17.63c-2.06,3.01-5.14,5.23-8.64,6.26l-15.21,4.44c-.19,.06-.38,.1-.59,.14-1.16,.19-2.36,.29-3.56,.29-6.13,0-12.38-2.6-14.12-9-.27-1.01-.45-1.95-.57-2.84l-7.05,2.08s-.08,.02-.12,.03l-.68,.18c-.16,.04-.32,.08-.47,.1-.23,.04-1.69,.27-3.69,.27-1.06,0-2.26-.07-3.53-.26-5.87-.88-9.85-4.09-11.19-9.01-.87-3.17-.67-5.8-.07-7.84l-.37,.03-5.53,.24c-.08,0-.42,.03-.97,.03-1.27,0-3.64-.12-6.17-.73-5.78-1.45-9.52-4.97-10.52-9.89-.8-4-.21-7.48,1.77-10.34,3.22-4.66,9.11-6.09,13.25-6.75l18.75-3.03c5.1-2.71,10.18-6.51,11.53-8.61-.11-.05-.22-.12-.36-.19-1.25-.6-3.59-1.14-5.31-1.52l-.46-.11c-6.47-1.47-13.34-8.61-12.87-15.97,.26-3.98,2.8-10.85,16.88-12.18,6.46-.61,15.14,.85,27.16,2.88,3.22,.54,6.82,1.15,10.67,1.77l25.66-14.13c1.56-3.39,4.12-6.3,7.44-8.3l1.66-1c14.05-8.42,35.27-21.16,37.77-38.36,1.3-8.96-2.8-18.69-12.18-28.93-1.88-2.06-1.74-5.24,.31-7.13,2.06-1.87,5.24-1.73,7.13,.31,11.52,12.59,16.49,25.1,14.73,37.21-3.2,21.95-26.89,36.15-42.56,45.56l-1.65,1c-2.6,1.56-4.21,4.32-4.3,7.37-.54,18.11,8.73,27.8,16.6,32.76,3.89,2.44,9.75,4.25,14.56,1.97,37.38-17.7,62.74-37.26,75.89-58.42,1.21-1.6,1.21-2,1.96-3.31,5.09-9.16,7.95-18.6,8.51-28.32Zm-15.72,87.45l3.43-36.64c-2.77,3.14-5.8,6.23-9.07,9.29l-2.33,34.56s0,.09,0,.14c-.92,9.82-3.81,19.16-8.42,27.33,14.16-11.95,15.62-26.68,16.35-34.25l.04-.42Zm-2.89-158.59c.85-13,.3-28.55-7.7-38.3-4.7-5.71-11.5-8.89-20.8-9.71l-25.07-1.48,1.21,3.16c5.16,3.38,23.06,15.55,40.88,33.65,4.14,4.21,7.96,8.44,11.48,12.67Zm-3.11-136.47c13.79-63.92-24.75-126.69-85.93-139.95-15.62-3.38-31.47-3.31-46.73,.05,25.65,6.47,49.4,24.32,69.58,52.55,16.86,23.58,25.96,46.78,28.13,52.68,2.07-.26,4.15-.18,6.2,.26,7.6,1.64,13.51,7.93,16.64,17.69,2.82,8.8,3.07,19.64,.72,30.5-2.06,9.53-5.81,17.81-10.53,24.12-6.06,8.12-13.7,12.98-21.39,12.98-1.28,0-2.56-.13-3.84-.41-.18-.04-.35-.09-.54-.14-4.59,2.18-24.75,11.06-56.35,15.5-10.18,1.43-22.22,2.46-35.76,2.46-27.84,0-62.08-4.33-99.98-18.35,3.58,8.05,12.61,12.53,15.91,13.94,.04,.02,.09,.02,.13,.04,.03,0,.12,.05,.26,.12,.52,.21,.83,.32,.86,.33,.24,.08,.46,.2,.69,.32,4.9,2.01,19.65,7.51,42.1,10.91,25.48,3.85,66.36,5.68,116.71-7.26,.34-.14,.7-.25,1.08-.32,18.81-3.42,32.66-15.57,42.43-28.66,13.4-17.96,19.17-37.73,19.62-39.35Zm-12.03,301.53l1.66-24.68c-10.67,8.35-23.35,16.36-38.02,24l-3.61,44.14c6.94,.54,9.46,.19,10.33-.21,.12-.05,.23-.09,.35-.14,7.76-2.81,14.41-8.2,19.75-16.02,5.29-7.73,8.59-17.1,9.53-27.09Zm-9.24-289.88c1.99-9.16,1.82-18.15-.46-25.29-1.95-6.08-5.29-10.06-9.17-10.91-.54-.12-1.09-.17-1.67-.17-3.51,0-7.5,2.22-11.21,6.31-5.04,5.55-8.9,13.66-10.88,22.83-3.34,15.4-.21,34.06,9.63,36.2,9.83,2.14,20.42-13.56,23.76-28.97Zm-29.19-37.68c1.95-2.04,3.98-3.73,6.05-5.07-1.92-5.2-10.86-28.04-27.03-50.58-24.05-33.55-51.89-50.68-82.74-50.89-.14,0-.28-.02-.41-.05-1.74,.79-3.48,1.63-5.19,2.52,46.25,9.46,73.82,38.21,89.07,61.46,10.97,16.73,17.13,32.72,20.26,42.61Zm.59,602.95l-20-29.93c-1.07-1.62-1.13-3.7-.16-5.37,.15-.22,.3-.44,.45-.64-.49-.52-.94-1.02-1.34-1.48-.09-.11-.19-.23-.27-.35l-.35-.47c-4.2-2.6-21.31-13.81-40.25-34.79-4.99,14.5-16.09,25.17-31.96,30.4-.72,.25-1.43,.4-2.15,.54l43.79,24.62c1.44,.81,2.39,2.27,2.55,3.93l4.72,50.05c.21,2.31,1.44,4.38,3.34,5.7,1.9,1.33,4.27,1.73,6.49,1.12,15.03-4.08,30.12-10.8,35.13-43.34Zm-8.12-592.5c-.02-.11-.05-.21-.07-.33l.12-.23c-1.45-5.83-7.26-26.47-21.43-47.96-18.83-28.6-44.1-47.13-75.26-55.26l-13.01-2.74c-1.22-.19-2.44-.39-3.68-.55-.76-.11-1.56-.17-2.44-.22-5.92-.31-11.64,1.08-16.58,4-66.29,39.26-54.86,103.79-46.87,129.71,.18,.58,.31,1,.38,1.26,1.25,4.52,3.68,8.05,6.22,8.97,3.31,1.21,6.59,2.31,9.84,3.38l11.18,3.34c.09,.02,.17,.05,.26,.07,.03,.13,.06,.25,.09,.38,75.48,20.88,131.85,1.49,143.67-3.19-.02-.13-.04-.27-.05-.41,.02-.02,.05-.02,.07-.03-.45-3.14-.64-6.47-.54-9.93,.02-.45,.04-.88,.06-1.33,.19-3.58,.69-7.28,1.5-11.06,1.41-6.47,3.66-12.54,6.55-17.85Zm-2.1,105.63l-4.18-11.03c-28.94,7.11-54.81,9.51-76.46,9.51-16.2,0-30.04-1.34-41.11-3.03-19-2.91-32.61-7.19-39.95-9.91l-3.45,7.19c63.4,29.33,143.98,12.52,165.15,7.26Zm2.12-46.3c-2.07-2.44-3.77-5.43-5.09-8.84-7.05,2.72-23.04,8.08-45.91,11-8.57,1.1-18.66,1.89-29.97,1.94l.89,10.34c12.1-.07,22.9-1,32.12-2.28,22.63-3.13,39.31-8.74,47.95-12.15Zm-38.09,265.57l10.44-5.75c-9.09-6.03-19.21-16.94-20.22-35.91l-20.62,11.35c-.98,.54-2.12,.73-3.22,.56-4.55-.72-8.77-1.42-12.49-2.05-11.25-1.9-19.38-3.27-24.53-2.78-5.76,.54-7.72,2.11-7.76,2.77-.11,1.76,2.85,4.99,5.03,5.48l.45,.11c2.32,.51,5.19,1.17,7.5,2.29,5.47,2.67,6.32,6.63,6.33,8.75,.07,8.4-12.6,15.71-18.05,18.48-.46,.23-.96,.39-1.47,.47l-19.53,3.16c-4.89,.78-6.23,2.04-6.57,2.54-.35,.51-.41,1.38-.17,2.58,.45,2.16,5.55,2.62,7.26,2.53l5.49-.25,21.08-1.32c1.26-.08,2.48-.49,3.53-1.18l16.03-10.58c2.33-1.54,5.46-.9,6.99,1.43,1.54,2.32,.9,5.45-1.44,6.98l-16.03,10.59c-2.51,1.66-5.42,2.63-8.45,2.82l-4.51,.29c-3.25,.77-5.58,1.96-6.37,3.29-.17,.3-.63,1.05-.12,2.91,.58,2.11,5.44,1.9,6.84,1.74l.31-.08,18.67-5.49c.12-.04,.26-.09,.4-.13,.68-.27,1.33-.53,1.95-.74,2.23-.98,4.53-2.35,5.53-3.4l12.1-12.65c1.93-2.01,5.12-2.07,7.13-.15,2.01,1.92,2.08,5.12,.16,7.13l-12.11,12.64c-2.14,2.24-5.62,4.3-8.86,5.7-.05,.02-.09,.05-.13,.06-.03,.02-.06,.03-.09,.04-.7,.3-1.4,.57-2.06,.79-2.03,.83-2.67,1.32-2.82,1.58,0,.02-.21,.59,.29,2.41,.45,1.66,4.57,1.62,6.05,1.44l14.87-4.34c1.28-.38,2.39-1.18,3.15-2.29l12.15-17.64c4.59-6.68,10.77-12.28,17.87-16.2Zm-110.06-259.47l4.11-9.34c-10.17-2.42-20.74-5.53-31.65-9.49-1.3-.47-2.48-1.11-3.55-1.86-1.86,3.36-3.09,6.55-3.67,9.58,11.98,4.66,23.6,8.3,34.76,11.11ZM53.06,193.27c.11-.57,.34-1.09,.65-1.54-2.2-.83-5.2-1.59-9.3-2.01-1.63-.02-1.73,.02-2.74,.12-4.49,.4-7.57,9.07-8.73,12.93-2.05,6.87-2.82,13.93-2.94,15.16,.06,3.54,1.3,10.19,4.14,10.98,2.11,.59,4.44-5.6,5.99-9.69,.63-1.66,1.28-3.37,1.96-4.9,.72-1.6,2.36-2.56,4.11-2.4l3.1,.3,3.75-18.93Zm-27.11,40.07c0-.26,.03-.5,.07-.74-4.02-5.36-4.19-13.62-4.19-14.84,0-.12,0-.25,.02-.37,.03-.35,.79-8.66,3.27-16.96,.16-.51,.32-1.02,.49-1.54-3.05,.47-7.04,1.78-10.83,3.08-12.67,4.33-3.95,29.05-3.95,29.05l2.39,6.74c1.54,2.15,3.76,4.42,5.97,4.1,5.23-.78,6.75-2.68,6.77-8.51Z"></path><path class="cls-7" d="M66.08,129.85c-2.79,0-5.09-2.26-5.09-5.04,0-.83,0-1.65,.02-2.47-.38-20.68-5.55-36.14-15.4-45.96-10.62-10.59-23.38-10.87-23.95-10.88h-.06c-2.77,0-5.03-2.24-5.04-5.01-.02-2.77,2.21-5.04,4.98-5.08h.14c14.47-.03,25.44-8.26,32.59-24.47,5.7-12.91,6.74-26.14,6.75-26.27,.2-2.63,2.39-4.67,5.03-4.67s4.83,2.03,5.04,4.66c0,.13,1.11,13.36,6.87,26.27,7.23,16.22,18.24,24.46,32.72,24.48h.14c2.77,.04,5,2.3,4.98,5.08-.02,2.81-2.31,5.02-5.14,5.01-.72,.01-13.52,.36-24.14,10.96-9.85,9.83-15.03,25.25-15.41,45.88,.01,.82,.02,1.64,.02,2.47,0,2.79-2.26,5.04-5.04,5.04Z"></path><path class="cls-3" d="M363.4,253.57c-.24,1.62-.52,3.25-.88,4.88-2.07,9.52-5.81,17.82-10.53,24.12-3.8,5.09-8.21,8.89-12.87,11.02-9.34,8.63-21.45,16.01-36.97,21.5,2.85-.65,5.73-1.35,8.64-2.1,.34-.14,.71-.25,1.08-.32,18.82-3.42,32.66-15.57,42.44-28.66,13.4-17.96,19.17-37.72,19.62-39.35,8-37.11-1.63-73.82-23.08-100.69,6.12,13.91,25.24,65.09,12.55,109.59Z"></path><path class="cls-3" d="M308.98,542.03c-.59,.23-.91,.35-.91,.35,0,0,.31-.11,.91-.35Z"></path><path class="cls-1" d="M150,243.96c-2.45,0-4.58-1.82-4.9-4.31-.67-5.07-1.05-10.11-1.13-15-.05-2.74,2.13-4.99,4.87-5.04,2.7-.07,4.99,2.13,5.04,4.87,.08,4.52,.43,9.19,1.05,13.88,.36,2.71-1.55,5.2-4.27,5.56-.22,.03-.44,.04-.65,.04Z"></path><path class="cls-1" d="M150.44,209.07c-.28,0-.56-.02-.84-.07-2.7-.46-4.51-3.02-4.05-5.72,8.46-49.56,47-70.44,48.63-71.31,2.42-1.28,5.42-.35,6.69,2.06,1.28,2.42,.36,5.41-2.06,6.69-.41,.22-35.9,19.65-43.5,64.22-.41,2.41-2.51,4.12-4.88,4.12Z"></path><g><path class="cls-3" d="M281.47,277.51c13.54-2.85,22.86-6.2,26.93-7.8-.98-6.88-.71-14.67,1.04-22.76,1.41-6.48,3.65-12.54,6.55-17.85-1.45-5.82-7.24-26.4-21.37-47.84-8.47-12.85-18.24-23.66-29.27-32.4,8.11,12.68,65.84,106.31,16.12,128.66Z"></path><path class="cls-3" d="M326.03,284.23c.82,.49,1.7,.85,2.64,1.05,9.84,2.14,20.42-13.55,23.76-28.97,1.99-9.16,1.83-18.15-.46-25.29-1.95-6.08-5.29-10.06-9.17-10.91-.37-.08-.76-.12-1.16-.14,1.78,7.37,9.07,43.92-15.61,64.26Z"></path><g><path class="cls-3" d="M352.66,334.08c3.47,4.79,8.76,14.47,9.2,29.44,.01,.46,.04,.9,.07,1.35,1.29,1.21,2.58,2.45,3.88,3.73,4.2,4.14,8.1,8.31,11.68,12.49,.65-13.02-.16-28.55-8.32-38.17-4-4.7-9.43-7.61-16.53-8.83Z"></path><path class="cls-3" d="M370.64,318.78c13.88,8.24-20.35,4.75-20.35,4.75l.06,.07c11.32,1.1,20.23,5.38,26.51,12.77,13.34,15.7,11.29,40.91,9.86,56.45,2.84,3.99,5.4,7.98,7.66,11.95l1.9-28c0-.36,.02-.89,.04-1.56,1.37-39.53-12.03-52.9-25.68-56.43Z"></path></g><g><path class="cls-3" d="M309.64,323.69c-2.64,.65-5.24,1.24-7.82,1.81l4.51,10.95c2.98-.65,5.5-1.25,7.49-1.74l-4.18-11.03Z"></path><path class="cls-3" d="M333.17,589.08c7.5-2.86,13.95-8.17,19.16-15.79,5.29-7.73,8.59-17.1,9.53-27.1l1.65-24.67c-5.16,4.04-10.8,8-16.91,11.88,.55,8.64,1.38,39.7-13.44,55.68Z"></path><path class="cls-3" d="M319.68,343.64c-1.37,.37-3.35,.89-5.85,1.49,11.38,9.18,101.63,84.66,62.58,137.25-32.67,43.99-61.98,57.44-67.42,59.65,1.25-.5,3.77-1.52,7.2-3.07,33.6-16.8,56.65-35.22,68.97-55.05,1.25-1.7,.73-1.17,1.96-3.31,5.1-9.16,7.95-18.6,8.52-28.32,1.75-30.26-19.23-58.35-37.14-76.58-16.42-16.71-33.33-28.44-38.8-32.06Z"></path></g><path class="cls-3" d="M316.64,452.29c1.19-8.22-2.17-17.09-9.98-26.4,1.57,4.3,4.08,12,3.33,21.39-1.3,16.33-11.7,28.44-19.52,36.16,11.97-7.93,24.3-18.29,26.17-31.15Z"></path><g><path class="cls-3" d="M286.79,772.07c.13,.04-9.39-7-24.64-23.45-.71,2.05-1.95,4.69-2.9,6.59,0,0,20.2,14.53,27.54,16.86Z"></path><path class="cls-3" d="M250.88,749.62c1.7-3.51,2.72-7.04,3.33-10.26-20.49-25.29-44.49-66.32-49.43-123.29-.11,25.68,3.14,105.25,46.1,133.55Z"></path></g><path class="cls-3" d="M68.46,452.47c13.8,7.94,29.63,7.66,43.83-.66,1.62-18.93,3.25-32.84,4.14-39.94-2.99,10.59-11.06,32.19-27.42,34-18.89,2.1-35.05-6.75-45.83-22.04,8.71,16.83,18.85,24.92,25.28,28.63Z"></path><path class="cls-3" d="M79.4,259.76c-3.37,3.82-2.93,6.01-3.49,11.07l-3.01,24.66,2.16,1.31s1.4,.78,3.31,.19,3.38-2.81,2.95-5.15l-.14-.72c-.02-.12-.03-.24-.03-.36l-.62-25.29,12.22-20.36c1.75-3.86-.47-11.86-3.62-15.12,.36,2.8,1.52,17.01-9.71,29.76Z"></path><path class="cls-3" d="M83.25,215.89l2.61-12.2c.69-2.03,.85-4.2,.45-6.31l-5.13-22.58c2.83,22.37-.95,33.53-2.94,37.6l5.02,3.49Z"></path><path class="cls-3" d="M32.72,228.17c.37,.38,.78,.67,1.23,.8,2.1,.58,4.43-5.6,5.99-9.69,.63-1.66,1.27-3.38,1.96-4.91,.71-1.59,2.36-2.56,4.11-2.39l3.1,.29,.73-3.71-4.95-1.26c-2.12-.2-4.12,.97-4.98,2.9-.84,1.86-1.62,3.94-2.38,5.95-1.51,3.98-2.98,10.15-4.82,12.04Z"></path><path class="cls-3" d="M19.23,241.88c5.06-.8,6.54-2.74,6.57-8.48,0-.26,.02-.49,.07-.73-4.02-5.37-4.19-13.63-4.19-14.85,0-.12,0-.25,.02-.37,.01-.17,.21-2.29,.7-5.4,0,0-.01,.02-.02,.06-3.68,17.4,2.57,23.33-3.12,29.75,0,0-.01,.02-.02,.03Z"></path><g><path class="cls-3" d="M335.59,698.41c-2.56-3.69-30.75-45.46-25.67-85.44l5.07-62.13c-.46,.22-.92,.45-1.38,.67-2.87,1.36-6.01,2.03-9.28,2.03-1.31,0-2.65-.12-4-.33l-17.59,9.69c-5.73,3.16-10.72,7.68-14.44,13.08l-12.14,17.64c-2.07,3.02-5.15,5.24-8.65,6.26l-15.2,4.44c-.19,.06-.38,.1-.59,.14-1.06,.18-2.15,.26-3.25,.28l-1.58-.03c-.48-.03-.96-.08-1.43-.14,.23,.09,4.76,4.24,10.06,4.24,1.2,0,2.4-.1,3.56-.29,.2-.04,.39-.08,.59-.14l15.2-4.44c3.5-1.02,6.58-3.24,8.65-6.26l13.14-17.53c3.71-5.4,11.53-7.37,17.26-10.52l8.81-4.85c-5.04,45.33-33.3,92.59,58.33,192.1,1.61-5.82,.87-10.71-.2-14.05l-25.28-44.39Z"></path><path class="cls-3" d="M397.09,799.9c-.08-.12-.15-.24-.21-.36l-24.88-48.5c-.13,3.66-1.45,8.98-2.69,12.49,49.55,73.54,.97,123.17-1.27,125.44,10.56-7.85,21.44-23.17,32.61-51.84,4.73-12.16,3.41-26.07-3.55-37.23Z"></path></g><path class="cls-3" d="M371.89,547.18l2.33-34.56c3.27-3.06,6.3-6.15,9.07-9.29l-3.43,36.64"></path><path class="cls-3" d="M379.86,539.98l-.04,.41c-.74,7.58-2.2,22.31-16.35,34.25,4.6-8.16,7.5-17.5,8.41-27.32,.01-.05,.01-.09,.01-.14"></path></g><path class="cls-3" d="M283.33,544.39s-18.12,10.24-25.87,23.35c-2.73,4.61-12.15,17.65-12.15,17.65-.76,1.1-1.88,1.91-3.16,2.28,0,0-18.02,6.16-16.87,6.55,1.34,.46,3.79,.37,4.57,.28l14.86-4.35c1.28-.37,2.4-1.18,3.16-2.28l12.15-17.65c4.59-6.68,10.78-12.28,17.88-16.19l10.44-5.75"></path><path class="cls-5" d="M282.68,399.69c-.06-4.63-3.91-8.92-8.54-9.51l-75.12-9.62c-.35-.04-.7-.06-1.04-.07-4.16-.02-7.36,3.13-7.3,7.41l.3,25.04c.06,4.64,3.91,8.92,8.54,9.51l75.12,9.62c.35,.04,.7,.06,1.04,.07,4.16,.02,7.36-3.13,7.31-7.41l-.31-25.04Zm-57.71,15.24c-.31,1.16-2.7,.97-4.64,.72-1.94-.25-3.72-.62-4.13-1.83l-1.29-7.54-.15-.02-1.37,7.2c-.42,1.11-2.21,1.03-4.15,.79-1.94-.25-4.33-.66-4.62-1.9l-2.69-20.41c0-1.05,1.49-.9,3.16-.69,1.67,.21,3.26,.45,3.49,1.53l1.03,12.04,.23,.03,1.97-11.58c.2-1.06,1.49-.97,3.12-.77,1.63,.21,2.92,.45,3.11,1.55l1.83,12.06,.23,.03,1.17-11.76c.23-1.02,1.83-.85,3.5-.64,1.67,.21,3.15,.44,3.14,1.49l-2.93,19.7Zm11.77,1.61c0,1.16-1.6,1-3.42,.76-1.78-.23-3.38-.47-3.37-1.63l.12-20.05c0-1.16,1.6-1,3.39-.77,1.82,.23,3.42,.47,3.41,1.63l-.12,20.05Zm16.98-13.23l-3.38-.43-.09,15.38c0,1.16-1.6,1-3.42,.76-1.78-.23-3.38-.47-3.37-1.63l.09-15.38-3.34-.42c-.99-.13-1.02-1.55-1.01-3.05,0-1.53,.06-2.95,1.04-2.83l13.51,1.71c.99,.13,1.02,1.55,1.01,3.09,0,1.5-.05,2.91-1.04,2.79Zm10.73,18.17c-2.24-.28-4.56-.65-6.9-1.85-.45-.28-.72-.62-.71-1.21,0-.86,.05-1.57,.16-2.11,.24-1.24,.58-2.25,1.34-2.15,1.21,.57,2.46,1.14,4.1,1.34,1.9,.24,2.51-.02,2.51-.95,0-.97-1.13-1.49-2.72-2.03-2.43-.79-6.03-1.85-6-7.42,.03-5.8,3.19-7.12,8.09-6.5,2.24,.28,3.61,.53,5.43,1.32,.49,.21,.68,.69,.71,1.29v.34c0,1.01-.17,2.64-.78,3.57-.19,.28-.46,.35-.8,.31-.42-.05-.95-.16-1.48-.26-.68-.12-1.4-.25-2.05-.33-2.13-.27-2.32,.6-2.32,.9,0,.97,.98,1.36,2.54,1.78,2.54,.7,6.22,1.76,6.18,7.86-.03,5.28-3.95,6.54-7.29,6.11Z"></path></g></g></g></g></svg> 