<?xml version="1.0" encoding="UTF-8"?> <svg xmlns="http://www.w3.org/2000/svg" viewBox="0 0 1264.44 534.24"><defs><style>.cls-1{fill:#62be6b;stroke:#222658;stroke-miterlimit:10;stroke-width:57px;}.cls-2{fill:#222658;}</style></defs><g id="Layer_2" data-name="Layer 2"><g id="WITS_CREW_MEMBER_PATCH" data-name="WITS CREW MEMBER PATCH"><g id="WITS_CREW_MEMBER_PATCH-2" data-name="WITS CREW MEMBER PATCH"><rect class="cls-1" x="28.5" y="28.5" width="1207.44" height="477.24" rx="107.87"></rect><path class="cls-2" d="M358.78,297.51,343,386.21C338.07,400.16,316.91,402,294,402s-51.33-1.36-54.93-15.76L205.7,144.88c0-12.6,17.56-13,37.37-13s38.72.45,41.42,13l13.06,143.18h2.7l22.51-142.28c2.25-13.05,17.56-13.95,36.92-13.95s34.67.9,36.92,13.95l22.51,142.28h2.7l13.06-143.18c2.7-12.6,21.61-13,41.42-13s37.37.45,37.37,13L480.34,386.21c-3.6,14.4-32,15.76-54.93,15.76s-44.12-1.81-49.07-15.76l-15.76-88.7Z"></path><path class="cls-2" d="M633.42,387.56c0,14-18.91,14.41-40.53,14.41-21.16,0-40.07-.45-40.07-14.41V146.23c0-13.95,18.91-14.4,40.07-14.4,21.62,0,40.53.45,40.53,14.4Z"></path><path class="cls-2" d="M801.8,202.51V387.56c0,14-18.91,14.41-40.52,14.41-21.17,0-40.07-.45-40.07-14.41v-185H681.58c-11.7,0-12.15-17.11-12.15-35.11,0-18.46.45-35.57,12.15-35.57H841.87c11.7,0,12.15,17.11,12.15,35.57,0,18-.45,35.11-12.15,35.11Z"></path><path class="cls-2" d="M1012.05,203.86c-8.1-.45-16.66-.9-24.31-.9-25.21,0-27.47,10.81-27.47,14.41,0,11.71,11.71,14.86,30.17,17.56,30.17,4.5,73.84,11.71,73.84,85.09,0,63.49-46.38,84.65-86,84.65-26.56,0-54-.9-81.94-11.71-5.4-2.7-8.55-6.3-8.55-13.51,0-10.35.45-18.91,1.8-25.66,2.7-15.31,6.75-27.91,15.76-27.91,14.4,4.95,29.26,9.9,48.62,9.9,22.51,0,29.72-4,29.72-15.31,0-11.7-13.51-16.2-32.42-20.26-28.81-5.85-71.59-13-71.59-80.14,0-69.78,37.37-90.49,95.45-90.49,26.57,0,42.77.9,64.39,7.65,5.85,1.8,8.1,7.2,8.55,14.41v4.05c0,12.15-1.8,32-9,44.12-2.26,3.6-5.41,4.95-9.46,4.95C1024.66,204.76,1018.36,204.31,1012.05,203.86Z"></path></g></g></g></svg> 